# xmcd
#
# Track frame offsets:
#	150
#	11515
#	27304
#	38648
#	50892
#	65300
#	77755
#	93230
#	104401
#	114709
#	126700
#	139246
#	151990
#	166249
#
# Disc length: 2367 seconds
# Revision: 0
# Processed by: cddbd v1.5.2PL0 Copyright (c) Steve Scherf et al.
# Submitted via: dBpowerAMP V12.0
#
DISCID=bc093d0e
DTITLE=Eddie and Martha Adcock with Tom Gray - Many a Mile
DYEAR=2011
DGENRE=Country
TTITLE0=Many A Mile
TTITLE1=Down Where The Still Waters Flow
TTITLE2=New Freedom Bell
TTITLE3=He Was A Friend Of Mine
TTITLE4=Two Little Boys
TTITLE5=Amelia Earhart's Last Flight
TTITLE6=Mary Dear
TTITLE7=Nightwalk
TTITLE8=I Am Weary, Let Me Rest
TTITLE9=Matterhorn
TTITLE10=Darling Little Joe
TTITLE11=Helen
TTITLE12=Bringing Mary Home
TTITLE13=This Morning At Nine
EXTD=
EXTT0=
EXTT1=
EXTT2=
EXTT3=
EXTT4=
EXTT5=
EXTT6=
EXTT7=
EXTT8=
EXTT9=
EXTT10=
EXTT11=
EXTT12=
EXTT13=
PLAYORDER=
